<svg width="105" height="48" viewBox="0 0 105 48" fill="none" xmlns="http://www.w3.org/2000/svg">
<g clip-path="url(#clip0_600_767)">
<path d="M7.01528 0.267543V6.34895H15.5946V47.8321H21.6756V0.267543H7.01528Z" fill="#AFB3C4"/>
<path d="M6.85736 0.109608V6.50734H15.4362V47.9905H21.8335V0.109608H6.85736ZM21.5172 47.6737H15.7525V6.19101H7.17367V0.425936H21.5172V47.6737Z" fill="#AFB3C4"/>
<path d="M0.5 10.0411V16.1225H6.58191V47.8321H12.6629V10.0411H0.5Z" fill="#AFB3C4"/>
<path d="M50.2777 9.89147C47.5453 9.89147 37.2931 12.3335 37.2931 23.6153C37.2931 30.1902 41.5139 34.1092 44.7949 35.8446C46.7956 36.8473 49.2103 36.7959 49.2103 36.7959H104.549V30.198H49.7135C48.883 30.198 47.7394 30.0034 47.0049 29.4942C45.6231 28.5383 43.8882 26.7519 43.8882 23.6153C43.8882 17.1982 50.0096 16.522 50.3204 16.4921C51.1734 16.4967 53.7341 16.6524 55.419 18.3355C56.6479 19.5631 57.2713 21.4854 57.2713 24.0496H63.8683C63.8683 19.671 62.5944 16.1781 60.0818 13.6677C56.6663 10.2537 52.4827 9.89147 50.2777 9.89147Z" fill="#AFB3C4"/>
<path d="M49.7135 30.0401C48.9556 30.0401 47.8157 29.8629 47.0967 29.3643C45.7062 28.4002 44.0484 26.6239 44.0484 23.6153C44.0484 17.3254 50.0808 16.6744 50.3379 16.6496C51.2859 16.6556 53.7016 16.8406 55.3097 18.4475C56.5079 19.6444 57.1153 21.5295 57.1153 24.0487V24.2066H64.0277V24.0487C64.0277 19.627 62.7381 16.0964 60.1948 13.5552C57.6515 11.014 54.3186 9.73263 50.2786 9.73263C48.9693 9.73263 45.6952 10.2882 42.6712 12.3918C40.1449 14.1502 37.1347 17.5224 37.1347 23.6153C37.1347 31.3692 42.9416 35.0431 44.721 35.9847C46.7364 36.9948 49.1135 36.9562 49.214 36.9539H104.707V30.0401H49.7135ZM104.39 36.6376H49.2085C49.1814 36.6376 46.8048 36.6757 44.8642 35.7033C43.1271 34.785 37.4492 31.1925 37.4492 23.6153C37.4492 17.6592 40.3873 14.366 42.8493 12.6526C45.5942 10.7427 48.7944 10.0494 50.2759 10.0494C54.2309 10.0494 57.4922 11.3046 59.9694 13.7797C62.4204 16.2286 63.6728 19.6325 63.704 23.8912H57.4261C57.3999 21.3661 56.7659 19.4557 55.5324 18.2235C53.8411 16.5339 51.3258 16.3411 50.3227 16.3342C50.0381 16.3608 43.7317 17.0412 43.7317 23.6153C43.7317 26.7611 45.4638 28.6196 46.9163 29.6242C47.6968 30.1641 48.872 30.3587 49.714 30.3587H104.39V36.6376Z" fill="#AFB3C4"/>
<path d="M47.6362 40.2976C45.7369 40.0442 33.7692 37.8533 33.7692 23.0721C33.7692 6.79567 50.4682 6.53719 51.4277 6.53719C52.5268 6.53719 67.0434 7.09134 67.232 24.0487H73.829C73.6454 4.44455 57.2103 0.00952148 51.4259 0.00952148C44.6806 0.00952148 27.1726 4.15256 27.1726 23.0721C27.1726 40.1874 40.177 46.1265 47.0536 46.8753L47.229 46.8946L104.739 46.9864L104.75 40.3885L47.6362 40.2976Z" fill="#AFB3C4"/>
</g>
<defs>
<clipPath id="clip0_600_767">
<rect width="104.25" height="48" fill="white" transform="translate(0.5)"/>
</clipPath>
</defs>
</svg>
