<svg width="212" height="40" viewBox="0 0 212 40" fill="none" xmlns="http://www.w3.org/2000/svg">
<g clip-path="url(#clip0_600_771)">
<path d="M130.943 39.514H153.737V34.5061H138.612C140.682 26.2229 153.357 24.3846 153.357 15.1294C153.357 10.1215 149.935 6.46593 142.879 6.46593C138.358 6.46593 134.598 7.79715 131.915 9.1495L133.5 13.7771C135.929 12.6783 138.612 11.5795 141.907 11.5795C144.59 11.5795 147.02 12.6783 147.02 15.7211C147.146 22.5674 132.274 23.0534 130.943 39.514ZM199.325 32.5621C192.375 32.5621 186.65 26.8357 186.65 19.8838C186.65 12.9319 192.375 7.20549 199.325 7.20549C206.275 7.20549 212 12.9319 212 19.8838C212 26.8357 206.275 32.5621 199.325 32.5621ZM199.325 9.50871C193.6 9.50871 188.974 14.1363 188.974 19.8626C188.974 25.589 193.6 30.2166 199.325 30.2166C205.05 30.2166 209.676 25.589 209.676 19.8626C209.676 14.1363 205.05 9.50871 199.325 9.50871Z" fill="#AFB3C4"/>
<path d="M206.507 19.8838H200.17V13.5446H198.459V21.5953H206.507V19.8838Z" fill="#AFB3C4"/>
<path d="M0.75 1.944H11.7139C19.7625 1.944 23.4171 6.57158 23.4171 11.4527C23.4171 14.7491 21.8327 17.6651 18.8964 19.2499V19.3767C23.2904 20.4754 25.9732 24.0042 25.9732 28.3994C25.9732 34.2525 21.5792 39.4929 12.8124 39.4929H0.75V1.944ZM10.8689 17.6862C14.6502 17.6862 16.7205 15.6154 16.7205 12.6783C16.7205 9.86794 14.8826 7.67037 10.8689 7.67037H7.70012V17.6651C7.70012 17.6862 10.8689 17.6862 10.8689 17.6862ZM11.9674 33.8933C16.4881 33.8933 19.0442 32.1817 19.0442 28.3994C19.0442 25.2298 16.6149 23.2858 12.8335 23.2858H7.70012V33.8933H11.9674ZM31.1066 4.14157C31.1066 1.81722 32.9445 0 35.2471 0C37.5709 0 39.5144 1.71157 39.5144 4.14157C39.5144 6.33914 37.6765 8.15637 35.2471 8.15637C32.8177 8.15637 31.1066 6.46593 31.1066 4.14157ZM31.8249 12.5515H38.6482V39.514H31.8249V12.5515ZM47.7954 32.9213V17.9186H42.9155V12.5515H47.7954V6.33914L54.6187 4.39514V12.5726H62.7941L61.083 17.9398H54.6187V31.2309C54.6187 33.7876 55.4637 34.654 57.3016 34.654C58.886 34.654 60.3436 34.0412 61.4421 33.3228L63.5124 37.9503C61.5689 39.2816 58.2734 40.0211 55.5905 40.0211C50.7317 40.1057 47.7954 37.4221 47.7954 32.9213ZM67.1881 12.5515H72.913L73.6524 15.5943C76.0817 13.1643 78.2787 11.9387 81.0884 11.9387C82.3136 11.9387 83.7712 12.2979 84.8697 13.0375L82.4404 18.7639C81.2151 18.0243 80.1166 17.9186 79.3984 17.9186C77.5605 17.9186 76.1029 18.6582 73.9059 20.6022V39.6197H67.0825V12.5515C67.0614 12.5515 67.1881 12.5515 67.1881 12.5515ZM87.5315 4.14157C87.5315 1.81722 89.3694 0 91.672 0C93.9746 0 95.8125 1.83835 95.8125 4.14157C95.8125 6.33914 93.9746 8.15637 91.5452 8.15637C89.1159 8.15637 87.5315 6.46593 87.5315 4.14157ZM88.2709 12.5515H95.0942V39.514H88.2709V12.5515ZM108.868 25.9694L99.108 12.5515H106.185L112.522 21.3207L118.987 12.5515H126.063L116.198 25.9694L126.19 39.514H119.113L112.649 30.4913L106.079 39.514H99.0024L108.868 25.9694Z" fill="#AFB3C4"/>
<path d="M174.947 26.7089V6.46593H170.68L154.477 27.5541V31.5689H169.095V39.6197H174.947V31.5689H179.827V26.6878C179.827 26.7089 174.947 26.7089 174.947 26.7089ZM169.095 21.9546V26.5821H165.187C163.962 26.5821 161.765 26.7089 161.046 26.7089L169.327 15.4886C169.327 16.4606 169.095 19.3767 169.095 21.9546Z" fill="#AFB3C4"/>
</g>
<defs>
<clipPath id="clip0_600_771">
<rect width="211.25" height="40" fill="white" transform="translate(0.75)"/>
</clipPath>
</defs>
</svg>
