<svg width="243" height="41" viewBox="0 0 243 41" fill="none" xmlns="http://www.w3.org/2000/svg">
<g clip-path="url(#clip0_547_318)">
<path d="M50.9194 29.462V13.1914H56.9907C58.6906 13.1914 59.9656 13.5754 60.8156 14.3433C61.6656 15.1112 62.0906 16.1603 62.0906 17.4905C62.0906 18.2858 61.9084 18.9715 61.5442 19.5475C61.1798 20.1097 60.7009 20.5485 60.1073 20.8639C60.7819 21.1107 61.3755 21.577 61.8882 22.2626C62.4009 22.9346 62.6573 23.7574 62.6573 24.731C62.6573 26.0887 62.2255 27.2199 61.3621 28.125C60.512 29.0164 59.318 29.462 57.78 29.462H50.9194ZM53.5908 27.1582H57.3145C58.0296 27.1582 58.6367 26.9457 59.1359 26.5206C59.6486 26.0954 59.905 25.499 59.905 24.731C59.905 24.0042 59.6688 23.4077 59.1966 22.9414C58.7379 22.4752 58.0903 22.2421 57.2538 22.2421H53.5908V27.1582ZM53.5908 19.9588H56.7276C57.4967 19.9588 58.124 19.7737 58.6097 19.4035C59.0955 19.0195 59.3383 18.4504 59.3383 17.6961C59.3383 17.0242 59.1291 16.4963 58.7109 16.1123C58.3062 15.7147 57.672 15.5158 56.8086 15.5158H53.5908V19.9588ZM64.2763 23.4763C64.2763 21.5702 64.7889 20.0548 65.8143 18.9304C66.8531 17.7921 68.1551 17.2231 69.7201 17.2231C71.2582 17.2231 72.5264 17.7921 73.5248 18.9304C74.5232 20.0686 75.0224 21.5496 75.0224 23.3734C75.0224 23.73 75.0021 24.0796 74.9617 24.4224H66.8667C66.8667 25.3275 67.1297 26.1092 67.6558 26.7674C68.1955 27.4119 68.9308 27.7342 69.8618 27.7342C70.5094 27.7342 71.0761 27.5765 71.5618 27.2611C72.0609 26.932 72.4387 26.5137 72.6951 26.0063L74.8402 26.7469C74.4624 27.6245 73.8486 28.3581 72.9987 28.9478C72.1486 29.5375 71.0895 29.8323 69.8213 29.8323C68.1888 29.8323 66.8531 29.2564 65.8143 28.1045C64.7889 26.9526 64.2763 25.4098 64.2763 23.4763ZM66.9071 22.5917H72.4117C72.4117 21.6867 72.1756 20.9187 71.7035 20.2879C71.2312 19.6435 70.5701 19.3212 69.7201 19.3212C68.8701 19.3212 68.1888 19.6503 67.6762 20.3085C67.1769 20.9531 66.9206 21.7142 66.9071 22.5917ZM76.2367 26.9937L78.0782 25.9034C78.8877 27.1102 79.94 27.7136 81.2353 27.7136C81.8694 27.7136 82.3686 27.5902 82.7329 27.3433C83.1106 27.0828 83.2995 26.74 83.2995 26.3149C83.2995 25.972 83.1444 25.6703 82.834 25.4098C82.5372 25.1492 82.2202 24.9573 81.8829 24.8339C81.5456 24.6968 81.0397 24.5184 80.3651 24.2991C80.2436 24.2579 80.1559 24.2305 80.1019 24.2168C79.6162 24.0522 79.2048 23.8945 78.8675 23.7436C78.5437 23.5791 78.1997 23.3665 77.8353 23.106C77.4711 22.8317 77.1945 22.4957 77.0056 22.0981C76.8167 21.6867 76.7223 21.2136 76.7223 20.6788C76.7223 19.6366 77.1541 18.8001 78.0175 18.1693C78.881 17.5385 79.9536 17.2231 81.2353 17.2231C82.1932 17.2231 83.0972 17.4837 83.9471 18.0047C84.7971 18.5121 85.4312 19.1635 85.8495 19.9588L84.1495 21.0079C83.3535 19.8972 82.3889 19.3417 81.2555 19.3417C80.6349 19.3417 80.1559 19.472 79.8187 19.7326C79.4949 19.9794 79.333 20.3085 79.333 20.7199C79.333 21.0627 79.4747 21.3713 79.7579 21.6455C80.0547 21.9061 80.3583 22.0981 80.6686 22.2215C80.9789 22.345 81.4175 22.5026 81.9841 22.6946C82.1325 22.7357 82.2404 22.7701 82.3079 22.7975C84.7094 23.5791 85.9101 24.7584 85.9101 26.3354C85.9101 27.3091 85.5054 28.1387 84.6959 28.8244C83.8999 29.4964 82.7666 29.8323 81.296 29.8323C80.1627 29.8323 79.1509 29.5786 78.2604 29.0712C77.3834 28.5638 76.7088 27.8713 76.2367 26.9937ZM86.8815 19.8148V17.5934H88.6827V14.0759H91.2326V17.5934H93.904V19.8148H91.2326V25.6567C91.2326 26.2189 91.3405 26.6234 91.5564 26.8702C91.7858 27.1171 92.1298 27.2405 92.5885 27.2405H93.9243V29.462H92.2647C89.8767 29.462 88.6827 28.2552 88.6827 25.8418V19.8148H86.8815ZM95.5837 22.5917V20.2879H105.621V22.5917H95.5837ZM111.147 20.6582H114.506C115.41 20.6582 116.104 20.4319 116.59 19.9794C117.076 19.5269 117.319 18.8755 117.319 18.0253C117.319 17.2711 117.07 16.6677 116.57 16.2152C116.071 15.7489 115.363 15.5158 114.445 15.5158H111.147V20.6582ZM108.475 29.462V13.1914H114.951C116.597 13.1914 117.859 13.6302 118.735 14.5079C119.626 15.3856 120.072 16.4826 120.072 17.799C120.072 18.9098 119.828 19.8148 119.342 20.5143C118.857 21.2136 118.297 21.6867 117.662 21.9335C118.176 22.2901 118.54 22.6672 118.755 23.0649C118.972 23.4625 119.154 24.066 119.302 24.875C119.626 26.4931 120.206 28.0221 121.043 29.462H118.068C117.406 28.3238 116.887 26.8634 116.51 25.0807C116.361 24.3813 116.138 23.8534 115.841 23.4969C115.558 23.1403 115.106 22.962 114.485 22.962H111.147V29.462H108.475ZM122.459 25.163V17.5934H125.029V24.8339C125.029 26.6851 125.67 27.6108 126.952 27.6108C127.721 27.6108 128.321 27.2817 128.753 26.6234C129.185 25.9514 129.401 25.1561 129.401 24.2373V17.5934H131.951V29.462H129.482V28.0839H129.462C129.272 28.509 128.908 28.9067 128.369 29.2769C127.843 29.6471 127.181 29.8323 126.385 29.8323C125.913 29.8323 125.462 29.7568 125.029 29.606C124.611 29.4689 124.199 29.2426 123.795 28.9272C123.39 28.5981 123.066 28.1112 122.823 27.4668C122.58 26.8222 122.459 26.0543 122.459 25.163ZM134.743 29.462V17.5934H137.233V19.0949H137.253C137.455 18.6561 137.826 18.2378 138.366 17.8401C138.919 17.4288 139.627 17.2231 140.491 17.2231C141.652 17.2231 142.575 17.5865 143.264 18.3133C143.951 19.04 144.296 20.2125 144.296 21.8307V29.462H141.725V22.1804C141.725 20.3565 141.119 19.4446 139.904 19.4446C139.162 19.4446 138.541 19.7463 138.042 20.3497C137.557 20.9531 137.314 21.7004 137.314 22.5917V29.462H134.743Z" fill="white"/>
<path d="M151.135 25.9858L153.484 25.1835C153.861 25.8692 154.407 26.4314 155.122 26.8702C155.838 27.2953 156.627 27.5079 157.49 27.5079C158.38 27.5079 159.096 27.2884 159.636 26.8497C160.175 26.4109 160.445 25.8418 160.445 25.1424C160.445 24.4019 160.155 23.826 159.575 23.4145C159.008 23.0032 158.171 22.6055 157.065 22.2215C155.486 21.6867 154.421 21.2616 153.868 20.9462C152.424 20.1097 151.702 18.896 151.702 17.3054C151.702 15.9615 152.221 14.8781 153.26 14.0553C154.3 13.2325 155.656 12.8212 157.328 12.8212C158.704 12.8212 159.878 13.1503 160.849 13.8085C161.835 14.453 162.55 15.2827 162.994 16.2975L160.749 17.0586C159.885 15.7832 158.738 15.1456 157.308 15.1456C156.431 15.1456 155.736 15.3444 155.223 15.7421C154.711 16.1398 154.455 16.6609 154.455 17.3054C154.455 17.4974 154.475 17.6825 154.516 17.8608C154.556 18.0253 154.636 18.183 154.758 18.3338C154.879 18.4847 154.987 18.6149 155.082 18.7247C155.176 18.8344 155.332 18.9509 155.547 19.0744C155.763 19.1978 155.932 19.2938 156.053 19.3624C156.189 19.4309 156.404 19.52 156.701 19.6297C156.998 19.7395 157.207 19.8148 157.328 19.856C157.463 19.8972 157.706 19.9794 158.057 20.1028C158.407 20.2125 158.643 20.2879 158.765 20.3291C159.386 20.5348 159.932 20.7542 160.404 20.9873C160.876 21.2205 161.335 21.5222 161.781 21.8924C162.239 22.2489 162.59 22.6946 162.833 23.2294C163.076 23.7642 163.198 24.3676 163.198 25.0395C163.198 26.5617 162.658 27.741 161.579 28.5776C160.513 29.414 159.13 29.8322 157.429 29.8322C155.958 29.8322 154.67 29.4895 153.564 28.8038C152.457 28.1044 151.648 27.1651 151.135 25.9858ZM167.184 23.538C167.184 24.9093 167.461 25.9309 168.014 26.6029C168.567 27.2748 169.214 27.6108 169.957 27.6108C170.685 27.6108 171.325 27.2748 171.879 26.6029C172.432 25.9309 172.708 24.9093 172.708 23.538C172.708 22.1393 172.432 21.1107 171.879 20.4525C171.325 19.7806 170.685 19.4446 169.957 19.4446C169.228 19.4446 168.581 19.7806 168.014 20.4525C167.461 21.1107 167.184 22.1393 167.184 23.538ZM164.553 23.538C164.553 21.7689 165.012 20.2743 165.929 19.0538C166.847 17.8334 168.189 17.2231 169.957 17.2231C171.71 17.2231 173.046 17.8334 173.964 19.0538C174.881 20.2743 175.34 21.7689 175.34 23.538C175.34 24.0865 175.286 24.635 175.178 25.1835C175.084 25.7321 174.908 26.2943 174.651 26.8702C174.395 27.4324 174.071 27.933 173.68 28.3718C173.289 28.7969 172.769 29.1466 172.122 29.4209C171.488 29.6951 170.766 29.8322 169.957 29.8322C169.16 29.8322 168.438 29.702 167.791 29.4415C167.157 29.1672 166.638 28.8243 166.232 28.413C165.842 27.9879 165.511 27.4942 165.241 26.932C164.985 26.356 164.803 25.7938 164.695 25.2452C164.6 24.683 164.553 24.114 164.553 23.538ZM177.667 29.462V12.6566H180.217V29.462H177.667ZM183.07 25.163V17.5934H185.64V24.8339C185.64 26.6851 186.281 27.6108 187.563 27.6108C188.332 27.6108 188.932 27.2817 189.365 26.6234C189.796 25.9514 190.012 25.1561 190.012 24.2373V17.5934H192.562V29.462H190.093V28.0839H190.073C189.884 28.509 189.519 28.9067 188.98 29.2769C188.454 29.6471 187.792 29.8322 186.996 29.8322C186.524 29.8322 186.072 29.7568 185.64 29.606C185.222 29.4689 184.811 29.2426 184.406 28.9272C184.002 28.5981 183.678 28.1112 183.435 27.4668C183.192 26.8222 183.07 26.0543 183.07 25.163ZM194.282 19.8148V17.5934H196.083V14.0759H198.633V17.5934H201.304V19.8148H198.633V25.6566C198.633 26.2189 198.741 26.6234 198.957 26.8702C199.186 27.1171 199.53 27.2404 199.989 27.2404H201.324V29.462H199.666C197.277 29.462 196.083 28.2552 196.083 25.8418V19.8148H194.282ZM203.469 15.8243V12.9652H206.222V15.8243H203.469ZM203.591 29.462V17.5934H206.121V29.462H203.591ZM211.12 23.538C211.12 24.9093 211.396 25.9309 211.949 26.6029C212.503 27.2748 213.151 27.6108 213.892 27.6108C214.621 27.6108 215.262 27.2748 215.815 26.6029C216.368 25.9309 216.645 24.9093 216.645 23.538C216.645 22.1393 216.368 21.1107 215.815 20.4525C215.262 19.7806 214.621 19.4446 213.892 19.4446C213.164 19.4446 212.516 19.7806 211.949 20.4525C211.396 21.1107 211.12 22.1393 211.12 23.538ZM208.489 23.538C208.489 21.7689 208.947 20.2743 209.865 19.0538C210.782 17.8334 212.124 17.2231 213.892 17.2231C215.646 17.2231 216.981 17.8334 217.899 19.0538C218.817 20.2743 219.276 21.7689 219.276 23.538C219.276 24.0865 219.221 24.635 219.113 25.1835C219.019 25.7321 218.843 26.2943 218.587 26.8702C218.331 27.4324 218.008 27.933 217.616 28.3718C217.224 28.7969 216.705 29.1466 216.058 29.4209C215.423 29.6951 214.702 29.8322 213.892 29.8322C213.096 29.8322 212.374 29.702 211.727 29.4415C211.092 29.1672 210.573 28.8243 210.169 28.413C209.777 27.9879 209.446 27.4942 209.177 26.932C208.92 26.356 208.738 25.7938 208.63 25.2452C208.536 24.683 208.489 24.114 208.489 23.538ZM221.38 29.462V17.5934H223.869V19.0949H223.89C224.092 18.6561 224.463 18.2378 225.003 17.8401C225.556 17.4288 226.264 17.2231 227.128 17.2231C228.287 17.2231 229.212 17.5865 229.901 18.3133C230.588 19.04 230.933 20.2125 230.933 21.8307V29.462H228.362V22.1804C228.362 20.3565 227.754 19.4446 226.541 19.4446C225.799 19.4446 225.178 19.7463 224.679 20.3497C224.193 20.9531 223.951 21.7004 223.951 22.5917V29.462H221.38ZM232.693 26.9937L234.534 25.9034C235.344 27.1102 236.396 27.7136 237.692 27.7136C238.325 27.7136 238.824 27.5902 239.189 27.3433C239.567 27.0828 239.756 26.74 239.756 26.3149C239.756 25.972 239.601 25.6703 239.291 25.4098C238.994 25.1492 238.676 24.9573 238.339 24.8339C238.002 24.6967 237.496 24.5184 236.821 24.2991C236.7 24.2579 236.613 24.2305 236.558 24.2167C236.073 24.0522 235.661 23.8945 235.323 23.7436C235 23.5791 234.656 23.3665 234.291 23.106C233.928 22.8317 233.651 22.4957 233.462 22.0981C233.273 21.6867 233.178 21.2136 233.178 20.6788C233.178 19.6366 233.611 18.8001 234.474 18.1693C235.337 17.5385 236.409 17.2231 237.692 17.2231C238.649 17.2231 239.554 17.4837 240.404 18.0047C241.253 18.5121 241.887 19.1635 242.306 19.9588L240.606 21.0079C239.81 19.8972 238.845 19.3417 237.712 19.3417C237.091 19.3417 236.613 19.472 236.275 19.7326C235.951 19.9794 235.789 20.3085 235.789 20.7199C235.789 21.0627 235.931 21.3713 236.214 21.6455C236.511 21.9061 236.815 22.0981 237.125 22.2215C237.436 22.3449 237.874 22.5026 238.44 22.6946C238.588 22.7357 238.697 22.7701 238.764 22.7975C241.166 23.5791 242.366 24.7584 242.366 26.3354C242.366 27.3091 241.962 28.1387 241.152 28.8243C240.356 29.4963 239.223 29.8322 237.752 29.8322C236.619 29.8322 235.607 29.5786 234.717 29.0712C233.84 28.5638 233.165 27.8713 232.693 26.9937Z" fill="#2E87FF"/>
<path d="M40.3506 20.8583C40.3506 30.2435 34.1067 38.1447 25.6152 40.5L25.1375 38.7194C32.8615 36.5799 38.5386 29.3936 38.5386 20.8583C38.5386 10.633 30.3904 2.34311 20.3381 2.34311C16.2801 2.34311 12.5332 3.69374 9.50674 5.97828L8.42831 4.49588C11.7559 1.98569 15.8769 0.5 20.3381 0.5C31.3911 0.5 40.3506 9.61509 40.3506 20.8583Z" fill="#2E87FF"/>
<path d="M36.7056 20.8582C36.7056 28.5337 31.5984 34.9953 24.6534 36.9208C23.2786 37.3029 21.831 37.5072 20.338 37.5072C20.0611 37.5072 19.7858 37.5006 19.5121 37.4857L19.5883 35.9803C19.836 35.9935 20.087 36.0001 20.338 36.0001C21.6966 36.0001 23.0131 35.8155 24.2631 35.4664C30.5799 33.7155 35.224 27.8386 35.224 20.8582C35.224 12.4958 28.559 5.71635 20.338 5.71635C17.0202 5.71635 13.9548 6.82157 11.4806 8.68939L10.5981 7.47711C13.3201 5.42317 16.6882 4.20925 20.338 4.20925C29.3768 4.20925 36.7056 11.6624 36.7056 20.8582Z" fill="#2E87FF"/>
<path d="M20.338 7.86097C18.8401 7.86097 17.4023 8.12285 16.068 8.60545L16.455 9.71396C17.6695 9.27582 18.9762 9.037 20.338 9.037C26.7551 9.037 31.9594 14.3292 31.9594 20.8583C31.9594 24.271 30.5361 27.3479 28.261 29.504L29.0496 30.3654C31.5514 27.9936 33.1157 24.612 33.1157 20.8583C33.1157 13.6802 27.3947 7.86097 20.338 7.86097Z" fill="#2E87FF"/>
<path d="M3.19158 31.9928C1.10434 28.6672 0 24.8162 0 20.8583C0 18.7433 0.312518 16.6582 0.927841 14.6652L1.5464 14.8628C0.950511 16.7932 0.647707 18.8093 0.647707 20.8583C0.647707 24.6911 1.71642 28.4185 3.73727 31.6369L3.19158 31.991V31.9928Z" fill="#2E87FF"/>
<path d="M12.776 34.2838C8.05748 31.5299 5.12823 26.386 5.12823 20.8583C5.12823 20.5403 5.13632 20.2422 5.15413 19.9474L5.80022 19.9886C5.78241 20.2702 5.77432 20.5552 5.77432 20.8599C5.77432 26.1521 8.58051 31.0785 13.0966 33.7156L12.7744 34.2871L12.776 34.2838Z" fill="#2E87FF"/>
<path d="M20.3381 34.185C13.1144 34.185 7.23653 28.2059 7.23653 20.8582C7.23653 20.6029 7.24463 20.3394 7.25919 20.0742L7.90529 20.1137C7.89071 20.3657 7.88261 20.6161 7.88261 20.8582C7.88261 27.8436 13.4691 33.5261 20.3364 33.5261C22.5629 33.5261 24.7473 32.9216 26.6516 31.7785L26.9803 32.3468C24.9756 33.5508 22.6762 34.1866 20.3348 34.1866L20.3381 34.185Z" fill="#2E87FF"/>
<path d="M20.3381 33.0073C16.3968 33.0073 12.7113 31.0307 10.4816 27.7218L11.0159 27.3495C13.1258 30.479 16.6105 32.3485 20.3381 32.3485C21.7532 32.3485 23.1329 32.0849 24.4397 31.5677L24.6744 32.1821C23.2915 32.7306 21.8326 33.009 20.3364 33.009L20.3381 33.0073Z" fill="#2E87FF"/>
<path d="M28.6854 20.8583C28.6854 17.8342 27.1309 15.1807 24.791 13.6752L24.2259 14.5861C26.271 15.8988 27.628 18.2164 27.628 20.8583C27.628 21.6752 27.4984 22.4609 27.2571 23.1955L28.2611 23.5348C28.5364 22.6931 28.6854 21.7939 28.6854 20.8583Z" fill="#2E87FF"/>
</g>
<defs>
<clipPath id="clip0_547_318">
<rect width="243" height="40" fill="white" transform="translate(0 0.5)"/>
</clipPath>
</defs>
</svg>
