<svg width="188" height="40" viewBox="0 0 188 40" fill="none" xmlns="http://www.w3.org/2000/svg">
<g clip-path="url(#clip0_600_765)">
<path d="M66.1961 23.0388L65.0784 26.2016H64.9852C64.799 25.4884 64.4574 24.4031 63.8986 23.1008L57.9066 8.06202H52.0388V32.031H55.9197V17.2403C55.9197 16.3101 55.9196 15.2558 55.8886 13.9535C55.8576 13.3023 55.7955 12.8062 55.7644 12.4341H55.8576C56.0438 13.3643 56.2612 14.0465 56.4164 14.4806L63.6192 31.969H66.3513L73.492 14.3256C73.6472 13.9225 73.8024 13.1163 73.9577 12.4341H74.0508C73.9577 14.2016 73.8956 15.7829 73.8645 16.7442V31.938H77.9937V8H72.3433L66.1961 23.0388ZM81.9056 14.7597H85.9416V31.938H81.9056V14.7597ZM83.9547 7.50388C83.2716 7.50388 82.7128 7.75194 82.2471 8.18605C81.7814 8.62016 81.533 9.17829 81.533 9.86047C81.533 10.5116 81.7814 11.0698 82.2471 11.5039C82.7128 11.938 83.2716 12.155 83.9547 12.155C84.6377 12.155 85.2276 11.907 85.6622 11.5039C86.1279 11.0698 86.3763 10.5116 86.3763 9.86047C86.3763 9.2093 86.1279 8.65116 85.6622 8.18605C85.2586 7.75194 84.6687 7.50388 83.9547 7.50388ZM100.254 14.6047C99.509 14.4496 98.7328 14.3566 97.9877 14.3566C96.1559 14.3566 94.4794 14.7597 93.0823 15.5659C91.6852 16.3721 90.5676 17.4884 89.8535 18.8837C89.1084 20.3101 88.7358 21.9535 88.7358 23.845C88.7358 25.4884 89.1084 26.9457 89.8224 28.2791C90.5365 29.5814 91.53 30.6357 92.865 31.3488C94.1379 32.062 95.6281 32.4341 97.3046 32.4341C99.2295 32.4341 100.875 32.031 102.179 31.2868L102.21 31.2558V27.5349L102.055 27.6589C101.465 28.093 100.782 28.4651 100.099 28.6822C99.3848 28.9302 98.7328 29.0543 98.174 29.0543C96.5595 29.0543 95.2866 28.5892 94.3863 27.5659C93.4549 26.5737 92.9892 25.2093 92.9892 23.5039C92.9892 21.7364 93.4549 20.3411 94.4173 19.3178C95.3798 18.2946 96.6527 17.7674 98.205 17.7674C99.509 17.7674 100.844 18.2016 102.055 19.0698L102.21 19.1938V15.2558L102.179 15.2248C101.651 15.0078 101.061 14.7597 100.254 14.6047ZM113.573 14.4806C112.58 14.4806 111.648 14.7907 110.841 15.4419C110.158 16 109.692 16.8062 109.289 17.7674H109.258V14.7597H105.222V31.938H109.258V23.1628C109.258 21.6744 109.568 20.4341 110.251 19.5349C110.934 18.6047 111.803 18.1395 112.859 18.1395C113.232 18.1395 113.604 18.2326 114.07 18.2946C114.504 18.4186 114.815 18.5426 115.032 18.6977L115.187 18.8217V14.7907L115.094 14.7597C114.815 14.5736 114.256 14.4806 113.573 14.4806ZM124.563 14.3876C121.738 14.3876 119.472 15.2248 117.889 16.8682C116.274 18.5116 115.498 20.7752 115.498 23.6279C115.498 26.2946 116.305 28.4651 117.857 30.0465C119.41 31.5969 121.521 32.4031 124.16 32.4031C126.923 32.4031 129.127 31.5659 130.711 29.8915C132.325 28.2171 133.101 25.9845 133.101 23.2248C133.101 20.4961 132.356 18.3256 130.835 16.7442C129.376 15.1628 127.233 14.3876 124.563 14.3876ZM127.792 27.5969C127.047 28.5581 125.867 29.0233 124.408 29.0233C122.949 29.0233 121.769 28.5581 120.931 27.5349C120.093 26.5737 119.689 25.1783 119.689 23.4109C119.689 21.5814 120.124 20.1861 120.931 19.1938C121.769 18.2016 122.918 17.7054 124.377 17.7054C125.805 17.7054 126.923 18.1705 127.73 19.1318C128.537 20.093 128.972 21.4884 128.972 23.3178C128.91 25.1783 128.568 26.6357 127.792 27.5969ZM142.105 21.8915C140.832 21.3643 140.025 20.9612 139.652 20.6202C139.342 20.3101 139.186 19.876 139.186 19.3178C139.186 18.8527 139.373 18.3876 139.838 18.0775C140.304 17.7674 140.832 17.6124 141.608 17.6124C142.291 17.6124 143.005 17.7364 143.688 17.9225C144.371 18.1085 144.992 18.3876 145.489 18.7597L145.644 18.8837V15.1008L145.551 15.0698C145.085 14.8837 144.464 14.6977 143.719 14.5426C142.974 14.4186 142.291 14.3566 141.732 14.3566C139.807 14.3566 138.224 14.8217 136.982 15.845C135.74 16.8062 135.15 18.1085 135.15 19.6279C135.15 20.4341 135.275 21.1473 135.554 21.7364C135.833 22.3256 136.237 22.8837 136.796 23.3488C137.355 23.783 138.162 24.2791 139.28 24.7442C140.211 25.1473 140.925 25.4574 141.36 25.7054C141.794 25.9535 142.074 26.2326 142.291 26.4496C142.446 26.6977 142.539 27.0078 142.539 27.4109C142.539 28.5581 141.67 29.1163 139.9 29.1163C139.217 29.1163 138.503 28.9923 137.665 28.7132C136.827 28.4341 136.051 28.031 135.399 27.5659L135.243 27.4419V31.3799L135.337 31.4109C135.927 31.6899 136.641 31.876 137.51 32.093C138.379 32.2481 139.155 32.3721 139.838 32.3721C141.919 32.3721 143.626 31.907 144.837 30.8837C146.079 29.8915 146.731 28.6202 146.731 26.9767C146.731 25.8295 146.42 24.8062 145.737 24.031C144.837 23.2868 143.719 22.5116 142.105 21.8915ZM157.38 14.3876C154.554 14.3876 152.288 15.2248 150.705 16.8682C149.121 18.5116 148.314 20.7752 148.314 23.6279C148.314 26.2946 149.121 28.4651 150.674 30.0465C152.226 31.5969 154.337 32.4031 156.976 32.4031C159.739 32.4031 161.944 31.5659 163.527 29.8915C165.141 28.2171 165.917 25.9845 165.917 23.2248C165.917 20.4961 165.172 18.3256 163.651 16.7442C162.192 15.1628 160.05 14.3876 157.38 14.3876ZM160.577 27.5969C159.832 28.5581 158.653 29.0233 157.193 29.0233C155.703 29.0233 154.554 28.5581 153.716 27.5349C152.878 26.5737 152.474 25.1783 152.474 23.4109C152.474 21.5814 152.909 20.1861 153.716 19.1938C154.554 18.2016 155.703 17.7054 157.162 17.7054C158.559 17.7054 159.708 18.1705 160.515 19.1318C161.323 20.093 161.757 21.4884 161.757 23.3178C161.757 25.1783 161.354 26.6357 160.577 27.5969ZM187.495 18.0775V14.7597H183.428V9.67442L183.304 9.70543L179.454 10.8527L179.361 10.8837V14.7597H173.275V12.5891C173.275 11.5969 173.524 10.8217 173.959 10.3256C174.393 9.82946 175.045 9.5814 175.852 9.5814C176.411 9.5814 177.001 9.70543 177.653 9.9845L177.808 10.0775V6.57364L177.715 6.54264C177.156 6.35659 176.411 6.23256 175.449 6.23256C174.238 6.23256 173.182 6.51163 172.22 6.97674C171.257 7.50388 170.543 8.21705 170.016 9.1783C169.488 10.1085 169.208 11.1628 169.208 12.3721V14.7597H166.383V18.0465H169.208V31.938H173.275V18.0775H179.361V26.9147C179.361 30.5426 181.068 32.3721 184.483 32.3721C185.042 32.3721 185.632 32.2791 186.191 32.1861C186.781 32.062 187.215 31.907 187.464 31.783L187.495 31.7519V28.4341L187.34 28.5581C187.091 28.7132 186.874 28.8372 186.501 28.9302C186.191 29.0233 185.911 29.0543 185.694 29.0543C184.887 29.0543 184.328 28.8682 183.924 28.4031C183.552 27.969 183.366 27.2558 183.366 26.2016V18.0775H187.495Z" fill="#AFB3C4"/>
<path d="M0.00568714 0H19.0372V19.0078H0.00568714V0Z" fill="#AFB3C4"/>
<path d="M21.0234 5.39957e-08H40.0549V19.0078H21.0234V5.39957e-08Z" fill="#AFB3C4"/>
<path d="M0.00488281 20.9922H19.0364V40H0.00488281V20.9922Z" fill="#AFB3C4"/>
<path d="M21.0234 20.9922H40.0549V40H21.0234V20.9922Z" fill="#AFB3C4"/>
</g>
<defs>
<clipPath id="clip0_600_765">
<rect width="187.5" height="40" fill="white"/>
</clipPath>
</defs>
</svg>
