<svg width="163" height="48" viewBox="0 0 163 48" fill="none" xmlns="http://www.w3.org/2000/svg">
<g clip-path="url(#clip0_600_775)">
<path d="M95.3476 25.246C94.6279 24.0713 95.5762 23.0858 95.5762 23.0858L103.913 14.4834C104.86 13.4979 103.496 13.4979 103.496 13.4979H95.7271C94.3632 13.4979 93.416 14.4834 93.416 14.4834L85.7225 22.6691C84.7753 23.6546 84.7753 22.2896 84.7753 22.2896V4.4022C84.7753 3.03827 83.4113 3.03827 83.4113 3.03827H77.5368C76.21 3.03827 76.21 4.36499 76.21 4.36499V41.7684C76.21 43.1334 77.575 43.1334 77.575 43.1334H83.4113C84.737 43.1334 84.737 41.8067 84.737 41.8067V35.2507C84.737 33.8867 85.7225 32.9385 85.7225 32.9385L88.4886 30.3615L95.3859 41.9587C96.0684 43.1334 97.4323 43.1334 97.4323 43.1334H104.823C106.187 43.1334 105.467 41.9587 105.467 41.9587L95.3476 25.246ZM70.0718 41.7684V14.8246C70.0718 13.4596 68.7079 13.4596 68.7079 13.4596H62.7961C61.4322 13.4596 61.4322 14.8246 61.4322 14.8246V41.7684C61.4322 43.1334 62.7961 43.1334 62.7961 43.1334H68.7079C70.0718 43.1334 70.0718 41.7684 70.0718 41.7684ZM69.8443 8.19208V4.32672C69.8443 4.32672 69.8443 3 68.5176 3H62.7568C62.7568 3 61.4311 3 61.4311 4.32672V8.19208C61.4311 8.19208 61.4311 9.51881 62.7568 9.51881H68.5548C68.5548 9.51881 69.8443 9.5188 69.8443 8.19208ZM55.1015 41.7684V4.44047C55.1015 3.07654 53.7376 3.07654 53.7376 3.07654H47.7121C46.3481 3.07654 46.3481 4.44047 46.3481 4.44047V41.7684C46.3481 43.1334 47.7121 43.1334 47.7121 43.1334H53.7376C55.1015 43.1334 55.1015 41.7684 55.1015 41.7684ZM41.5728 40.178C41.5728 40.178 42.3308 39.3063 41.459 38.5483L36.6465 34.3417C38.8066 31.1206 40.0951 27.2935 40.0951 23.1241C40.0951 12.0585 31.1131 3.07761 20.0476 3.07761C8.9809 3.07654 0 12.0574 0 23.123C0 34.1897 8.98196 43.1706 20.0476 43.1706C24.1021 43.1706 27.8537 41.9587 31.0377 39.874L36.3424 44.459C36.3424 44.459 37.2142 45.217 37.9721 44.3453L41.5728 40.178ZM31.6064 23.0869C31.6064 29.4909 26.4143 34.683 20.0093 34.683C13.6053 34.683 8.41321 29.4909 8.41321 23.0869C8.41321 16.6818 13.6053 11.4908 20.0093 11.4908C26.4143 11.528 31.6064 16.6818 31.6064 23.0869Z" fill="#AFB3C4"/>
<path d="M162.237 40.7011L155.794 35.2825C158.03 31.7202 159.356 27.5136 159.356 23.004C159.356 10.3076 149.048 0 136.353 0C123.657 0 113.35 10.3076 113.35 23.004C113.35 35.6993 123.657 46.0069 136.353 46.0069C141.279 46.0069 145.865 44.4527 149.617 41.8003L156.476 47.5611C156.476 47.5611 157.5 48.4328 158.371 47.4091L162.464 42.5583C162.426 42.5583 163.259 41.5356 162.237 40.7011ZM150.488 23.004C150.488 30.8102 144.16 37.1387 136.353 37.1387C128.547 37.1387 122.217 30.8102 122.217 23.004C122.217 15.1967 128.547 8.86821 136.353 8.86821C144.16 8.86821 150.488 15.1967 150.488 23.004Z" fill="#AFB3C4"/>
<path d="M127.257 23.004C127.257 18.0017 131.312 13.9465 136.314 13.9465C141.317 13.9465 145.372 18.0017 145.372 23.004C145.372 28.0063 141.317 32.0614 136.314 32.0614C131.312 32.0614 127.257 28.0063 127.257 23.004Z" fill="#AFB3C4"/>
</g>
<defs>
<clipPath id="clip0_600_775">
<rect width="162.755" height="48" fill="white"/>
</clipPath>
</defs>
</svg>
