<svg width="107" height="48" viewBox="0 0 107 48" fill="none" xmlns="http://www.w3.org/2000/svg">
<path fill-rule="evenodd" clip-rule="evenodd" d="M58.1054 48H0.75V0H106.161L58.1054 48ZM52.5646 9.60003H62.1603C71.2988 9.60003 75.5925 12.6891 75.5947 19.7814C75.5947 26.1494 71.1781 29.9467 63.7069 29.9467H60.6158L60.5806 38.4139L46.0546 38.4L45.0421 34.7307C43.5435 35.2214 41.8538 35.4944 40.0573 35.4944C38.2138 35.4944 36.4771 35.2064 34.9497 34.6859L33.4971 38.4L25.401 38.4256L25.7642 36.5568C25.7435 36.575 25.723 36.5931 25.7025 36.6112C25.6086 36.6941 25.5155 36.7762 25.4138 36.8576C23.2499 38.5963 20.5263 39.3995 17.1703 39.4603L16.3031 39.4667C12.4473 39.4667 9.05395 38.5558 5.85717 36.7403L8.81257 30.8843C12.0126 32.7734 14.0206 33.199 16.7303 33.1414C18.1348 33.1136 19.1495 32.8576 19.8117 32.175C20.1995 31.773 20.4241 31.2416 20.4419 30.6838C20.4686 29.1627 18.3004 28.448 15.6462 27.6267C13.494 26.9611 11.0513 26.0544 9.14154 24.6571C6.88146 22.9963 5.8059 20.9184 5.85931 17.9872C5.89135 15.8571 6.68173 13.9307 8.14715 12.416C10.2491 10.2454 13.6403 8.92803 17.7129 8.92803H17.7343C21.2269 8.93123 25.4865 9.92003 28.5668 11.4859L25.2451 17.2672C21.8667 15.6374 20.1685 15.4827 18.2459 15.3792C15.3802 15.2267 13.9383 16.2496 13.917 17.3526C13.8892 18.6966 16.6245 19.9126 19.2018 20.7392C23.1046 21.9776 28.0648 23.631 28.8232 28.4224L35.9558 9.59256H44.241L52.5966 32.1387L52.5646 9.60003ZM40.0573 28.8662C39.0123 28.8733 37.9745 28.6919 36.994 28.3307L40.0231 18.7787H40.0819L43.0618 28.3574C42.1646 28.6774 41.1435 28.8662 40.0573 28.8662Z" fill="#AFB3C4"/>
<path d="M62.7221 23.3782H60.6137V15.68H62.7232C65.5322 15.68 67.7752 16.6144 67.7752 19.4795C67.7731 22.4448 65.5312 23.3782 62.7221 23.3782Z" fill="#AFB3C4"/>
</svg>
