<svg width="224" height="40" viewBox="0 0 224 40" fill="none" xmlns="http://www.w3.org/2000/svg">
<g clip-path="url(#clip0_600_773)">
<path d="M40.961 -0.223633L24.8844 28.1919L8.85913 -0.223633H1.23047L24.9356 41.7084L44.8521 6.43225H69.53V-0.223633H40.961Z" fill="#AFB3C4"/>
<path d="M41.166 16.6725V39.8657H69.5303V33.2098H47.8219V23.3283H69.5303V16.6725H41.166ZM139.724 -0.223234H146.38V39.8657H139.724V-0.223234ZM137.113 -0.223234H103.117V-0.120836C105.216 1.56873 106.803 3.82149 107.725 6.43265H116.787V39.8657H123.443V6.43265H137.113V-0.223234ZM101.479 39.8657H108.134L98.3042 21.8436C102.503 20.154 105.472 16.0069 105.472 11.2454C105.472 4.89667 100.352 -0.223234 94.0034 -0.223234H72.2951V39.8657H78.9509V22.6628H92.1091L101.479 39.8657ZM78.9509 6.43265H94.0034C96.6658 6.43265 98.8162 8.58301 98.8162 11.2454C98.8162 13.9077 96.6658 16.0581 94.0034 16.0581H78.9509V6.43265ZM197.784 -1.70801L180.683 26.7587V26.8099C178.277 30.8034 173.925 33.4658 168.959 33.4658C161.381 33.4658 155.238 27.3219 155.238 19.7444C155.238 12.1669 161.381 6.02306 168.959 6.02306C173.618 6.02306 177.714 8.32701 180.223 11.911L183.807 5.92066C180.12 1.92713 174.847 -0.530429 168.959 -0.530429C157.746 -0.530429 148.684 8.53181 148.684 19.7444C148.684 30.957 157.746 40.0193 168.959 40.0193C176.332 40.0193 182.783 36.0769 186.367 30.189L197.784 11.143L215.089 39.9681L222.769 39.8657L197.784 -1.70801Z" fill="#AFB3C4"/>
</g>
<defs>
<clipPath id="clip0_600_773">
<rect width="224" height="40" fill="white"/>
</clipPath>
</defs>
</svg>
